<?xml version="1.0" encoding="UTF-8" standalone="no"?>
<!-- Created with Inkscape (http://www.inkscape.org/) -->

<svg
   version="1.1"
   id="svg18"
   width="1160"
   height="377.21332"
   viewBox="0 0 1160 377.21332"
   sodipodi:docname="logo.svg"
   inkscape:version="1.2.2 (b0a8486, 2022-12-01)"
   xmlns:inkscape="http://www.inkscape.org/namespaces/inkscape"
   xmlns:sodipodi="http://sodipodi.sourceforge.net/DTD/sodipodi-0.dtd"
   xmlns="http://www.w3.org/2000/svg"
   xmlns:svg="http://www.w3.org/2000/svg">
  <defs
     id="defs22" />
  <sodipodi:namedview
     id="namedview20"
     pagecolor="#ffffff"
     bordercolor="#000000"
     borderopacity="0.25"
     inkscape:showpageshadow="2"
     inkscape:pageopacity="0.0"
     inkscape:pagecheckerboard="0"
     inkscape:deskcolor="#d1d1d1"
     showgrid="false"
     inkscape:zoom="0.62564069"
     inkscape:cx="580.20523"
     inkscape:cy="188.60666"
     inkscape:window-width="1419"
     inkscape:window-height="456"
     inkscape:window-x="0"
     inkscape:window-y="25"
     inkscape:window-maximized="0"
     inkscape:current-layer="g26">
    <inkscape:page
       x="0"
       y="0"
       id="page24"
       width="1160"
       height="377.21332" />
  </sodipodi:namedview>
  <g
     id="g26"
     inkscape:groupmode="layer"
     inkscape:label="Page 1"
     transform="matrix(1.3333333,0,0,-1.3333333,0,377.21333)">
    <g
       id="g28"
       transform="scale(0.1)">
      <path
         d="M 2799.24,30 H 30 V 2799.12 H 2799.24 V 30"
         style="fill:#15223c;fill-opacity:1;fill-rule:nonzero;stroke:none"
         id="path30" />
      <path
         d="M 2829.24,2829.12 H 0 V 0 h 2829.24 v 30 2769.12 30 z m -30,-30 V 30 H 30 v 2769.12 h 2769.24"
         style="fill:#ffffff;fill-opacity:1;fill-rule:nonzero;stroke:none"
         id="path32" />
      <path
         d="m 1747.68,1192.82 -655.64,803.47 H 683.402 V 1845.98 H 789.828 V 984.48 H 683.402 V 834.32 h 506.578 v 150.16 h -108.5 v 635.97 l 642.93,-786.13 h 421.43 v 150.16 h -106.49 v 861.5 h 106.49 v 150.31 h -504.59 v -150.31 h 106.43 z M 1656.21,762.191 1177.3,1346.27 v -289.53 h 110.59 V 762.191 H 585.469 v 294.549 h 106.426 v 717.2 H 585.469 v 292.99 h 576.811 l 487.58,-596.82 v 303.83 h -106.49 v 292.99 h 700.47 v -292.99 h -106.58 v -717.2 h 106.58 V 762.191 h -587.63"
         style="fill:#ffffff;fill-opacity:1;fill-rule:nonzero;stroke:none"
         id="path34" />
      <path
         d="m 3211.22,1622.05 v -215.41 c 0,-80.77 36.07,-115.22 84.54,-115.22 53.32,0 88.31,35.52 88.31,115.22 v 215.41 h 47.4 v -212.18 c 0,-111.45 -58.7,-156.69 -137.33,-156.69 -74.31,0 -130.32,42.01 -130.32,155.08 v 213.79 h 47.4"
         style="fill:#15223c;fill-opacity:1;fill-rule:nonzero;stroke:none"
         id="path36" />
      <path
         d="m 3493.89,1449.19 c 0,27.46 -0.54,49 -2.16,70.53 h 42 l 2.69,-43.07 h 1.08 c 12.92,24.23 43.07,48.46 86.16,48.46 36.07,0 92.08,-21.54 92.08,-110.93 V 1259.1 h -47.38 v 150.23 c 0,42 -15.63,77.01 -60.32,77.01 -30.7,0 -54.93,-22.09 -63.54,-48.47 -2.14,-5.92 -3.23,-14 -3.23,-22.07 v -156.7 h -47.38 v 190.09"
         style="fill:#15223c;fill-opacity:1;fill-rule:nonzero;stroke:none"
         id="path38" />
      <path
         d="m 3781.95,1259.1 v 260.62 h 47.38 V 1259.1 Z m 52.76,333.86 c 0,-16.15 -11.3,-29.07 -30.15,-29.07 -17.23,0 -28.54,12.92 -28.54,29.07 0,16.15 11.85,29.63 29.62,29.63 17.23,0 29.07,-12.94 29.07,-29.63"
         style="fill:#15223c;fill-opacity:1;fill-rule:nonzero;stroke:none"
         id="path40" />
      <path
         d="m 3904.71,1519.72 51.15,-145.92 c 8.62,-24.23 15.63,-45.78 21,-67.31 h 1.63 c 5.92,21.53 13.46,43.08 22.07,67.31 l 50.62,145.92 h 49.54 L 3998.41,1259.1 h -45.24 l -99.08,260.62 h 50.62"
         style="fill:#15223c;fill-opacity:1;fill-rule:nonzero;stroke:none"
         id="path42" />
      <path
         d="m 4294.55,1414.72 c 0.53,29.61 -12.39,76.47 -65.7,76.47 -48.46,0 -68.93,-43.63 -72.7,-76.47 z m -138.94,-33.92 c 1.08,-64.09 41.47,-90.46 89.39,-90.46 33.93,0 54.93,5.91 72.16,13.46 l 8.62,-33.93 c -16.7,-7.54 -45.77,-16.69 -87.24,-16.69 -80.24,0 -128.16,53.31 -128.16,131.92 0,78.63 46.31,140.01 122.24,140.01 85.62,0 107.69,-74.32 107.69,-122.24 0,-9.69 -0.52,-16.69 -1.61,-22.07 h -183.09"
         style="fill:#15223c;fill-opacity:1;fill-rule:nonzero;stroke:none"
         id="path44" />
      <path
         d="m 4380.15,1438.41 c 0,30.7 -0.54,57.08 -2.16,81.31 h 41.46 l 2.17,-51.69 h 1.61 c 11.85,35 40.92,57.08 72.69,57.08 4.86,0 8.61,-0.54 12.92,-1.08 v -44.69 c -4.83,1.08 -9.69,1.08 -16.15,1.08 -33.38,0 -57.09,-24.77 -63.55,-60.32 -1.06,-6.46 -1.6,-14.54 -1.6,-22.07 V 1259.1 h -47.39 v 179.31"
         style="fill:#15223c;fill-opacity:1;fill-rule:nonzero;stroke:none"
         id="path46" />
      <path
         d="m 4539.51,1307.03 c 14.54,-8.61 39.31,-18.32 63,-18.32 33.93,0 50.09,16.71 50.09,38.77 0,22.63 -13.46,34.46 -47.92,47.38 -47.4,17.24 -69.47,42.55 -69.47,73.78 0,42.01 34.46,76.47 89.93,76.47 26.38,0 49.53,-7 63.53,-16.16 l -11.31,-34.46 c -10.23,6.47 -29.07,15.62 -53.3,15.62 -28.01,0 -43.09,-16.15 -43.09,-35.55 0,-21.52 15.08,-31.23 49.01,-44.69 44.69,-16.69 68.38,-39.3 68.38,-78.08 0,-46.31 -36.07,-78.61 -96.93,-78.61 -28.53,0 -54.92,7.54 -73.22,18.3 l 11.3,35.55"
         style="fill:#15223c;fill-opacity:1;fill-rule:nonzero;stroke:none"
         id="path48" />
      <path
         d="m 4740.36,1259.1 v 260.62 h 47.38 V 1259.1 Z m 52.76,333.86 c 0,-16.15 -11.3,-29.07 -30.15,-29.07 -17.24,0 -28.55,12.92 -28.55,29.07 0,16.15 11.85,29.63 29.63,29.63 17.23,0 29.07,-12.94 29.07,-29.63"
         style="fill:#15223c;fill-opacity:1;fill-rule:nonzero;stroke:none"
         id="path50" />
      <path
         d="m 4912.66,1582.19 v -62.47 h 67.85 v -36.07 h -67.85 v -140.54 c 0,-32.32 9.15,-50.63 35.54,-50.63 12.92,0 20.47,1.09 27.47,3.23 l 2.15,-36.07 c -9.15,-3.23 -23.7,-6.46 -42.01,-6.46 -22.07,0 -39.84,7.54 -51.15,19.92 -12.92,14.55 -18.32,37.69 -18.32,68.38 v 142.17 h -40.38 v 36.07 h 40.38 v 48.47 l 46.32,14"
         style="fill:#15223c;fill-opacity:1;fill-rule:nonzero;stroke:none"
         id="path52" />
      <path
         d="m 5040.27,1519.72 56.53,-154 c 6.46,-17.24 12.92,-37.7 17.23,-53.31 h 1.09 c 4.83,15.61 10.23,35.53 16.69,54.39 l 51.69,152.92 h 50.09 l -71.09,-185.78 c -33.92,-89.38 -57.07,-134.62 -89.39,-163.15 -23.69,-19.93 -46.3,-28 -58.16,-30.16 l -11.85,39.31 c 11.85,3.77 27.46,11.32 41.47,23.15 12.93,10.24 28.54,28.55 39.85,52.78 2.15,4.85 3.77,8.61 3.77,11.31 0,2.69 -1.08,6.46 -3.77,12.38 l -95.85,240.16 h 51.7"
         style="fill:#15223c;fill-opacity:1;fill-rule:nonzero;stroke:none"
         id="path54" />
      <path
         d="m 5388.09,1388.87 c 0,-57.08 32.32,-100.16 78.62,-100.16 45.23,0 79.16,42.54 79.16,101.24 0,44.15 -22.07,99.62 -78.08,99.62 -55.47,0 -79.7,-51.7 -79.7,-100.7 z m 206.24,2.7 c 0,-96.38 -67.3,-138.39 -129.77,-138.39 -70.01,0 -124.93,51.7 -124.93,134.08 0,86.7 57.61,137.85 129.24,137.85 74.85,0 125.46,-54.38 125.46,-133.54"
         style="fill:#15223c;fill-opacity:1;fill-rule:nonzero;stroke:none"
         id="path56" />
      <path
         d="m 5647.61,1259.1 v 224.55 h -36.07 v 36.07 h 36.07 v 12.4 c 0,36.61 8.62,69.99 30.15,90.99 17.77,17.23 41.46,24.24 63.55,24.24 17.23,0 31.23,-3.78 40.38,-7.53 l -6.46,-36.63 c -7,3.23 -16.15,5.92 -30.15,5.92 -40.38,0 -50.62,-34.99 -50.62,-75.39 v -14 h 63 v -36.07 h -63 V 1259.1 h -46.85"
         style="fill:#15223c;fill-opacity:1;fill-rule:nonzero;stroke:none"
         id="path58" />
      <path
         d="m 5883.43,1259.1 v 362.95 h 51.7 l 115.78,-183.64 c 26.38,-42.54 47.93,-80.78 64.62,-117.93 l 1.6,0.54 c -4.29,48.47 -5.37,92.62 -5.37,149.17 v 151.86 h 44.15 V 1259.1 h -47.38 l -115.25,184.17 c -25.3,40.38 -49.53,81.84 -67.3,121.15 l -1.63,-0.53 c 2.69,-45.78 3.23,-89.4 3.23,-149.71 V 1259.1 h -44.15"
         style="fill:#15223c;fill-opacity:1;fill-rule:nonzero;stroke:none"
         id="path60" />
      <path
         d="m 6390.67,1414.72 c 0.52,29.61 -12.4,76.47 -65.7,76.47 -48.47,0 -68.93,-43.63 -72.7,-76.47 z m -138.94,-33.92 c 1.08,-64.09 41.46,-90.46 89.39,-90.46 33.92,0 54.92,5.91 72.16,13.46 l 8.62,-33.93 c -16.71,-7.54 -45.78,-16.69 -87.24,-16.69 -80.24,0 -128.17,53.31 -128.17,131.92 0,78.63 46.32,140.01 122.25,140.01 85.62,0 107.69,-74.32 107.69,-122.24 0,-9.69 -0.54,-16.69 -1.61,-22.07 h -183.09"
         style="fill:#15223c;fill-opacity:1;fill-rule:nonzero;stroke:none"
         id="path62" />
      <path
         d="m 6491.86,1519.72 51.16,-145.92 c 8.62,-24.23 15.62,-45.78 21,-67.31 h 1.62 c 5.92,21.53 13.47,43.08 22.07,67.31 l 50.63,145.92 h 49.53 l -102.3,-260.62 h -45.24 l -99.08,260.62 h 50.61"
         style="fill:#15223c;fill-opacity:1;fill-rule:nonzero;stroke:none"
         id="path64" />
      <path
         d="m 6848.33,1392.1 c -51.7,1.08 -110.4,-8.07 -110.4,-58.7 0,-31.23 20.46,-45.21 44.16,-45.21 34.46,0 56.55,21.52 64.07,43.6 1.62,5.38 2.17,10.77 2.17,15.09 z m 45.76,-70.54 c 0,-22.62 1.08,-44.69 3.77,-62.46 h -42.53 l -3.77,32.84 h -1.63 c -14.54,-20.46 -42.53,-38.76 -79.7,-38.76 -52.76,0 -79.68,37.16 -79.68,74.84 0,63.01 55.99,97.47 156.69,96.93 v 5.38 c 0,21 -5.92,60.32 -59.23,59.78 -24.78,0 -50.08,-7 -68.39,-19.38 l -10.77,31.76 c 21.54,13.46 53.32,22.62 86.16,22.62 79.7,0 99.08,-54.38 99.08,-106.08 v -97.47"
         style="fill:#15223c;fill-opacity:1;fill-rule:nonzero;stroke:none"
         id="path66" />
      <path
         d="m 7137.47,1413.64 c 0,5.92 -0.54,14 -2.15,19.92 -7,29.63 -32.86,54.4 -68.39,54.4 -49.01,0 -78.09,-43.09 -78.09,-100.16 0,-52.78 26.38,-96.38 77.01,-96.38 31.77,0 60.84,21.52 69.47,56.52 1.61,6.46 2.15,12.92 2.15,20.46 z m 46.84,227.79 V 1326.4 c 0,-23.14 1.08,-49.53 2.16,-67.3 h -42 l -2.15,45.24 h -1.62 c -14.01,-29.09 -45.24,-51.16 -87.77,-51.16 -63.01,0 -112.02,53.31 -112.02,132.46 -0.54,86.7 53.85,139.47 116.86,139.47 40.38,0 66.78,-18.85 78.61,-39.31 h 1.09 v 155.63 h 46.84"
         style="fill:#15223c;fill-opacity:1;fill-rule:nonzero;stroke:none"
         id="path68" />
      <path
         d="m 7379.22,1392.1 c -51.69,1.08 -110.39,-8.07 -110.39,-58.7 0,-31.23 20.46,-45.21 44.16,-45.21 34.46,0 56.54,21.52 64.07,43.6 1.62,5.38 2.16,10.77 2.16,15.09 z m 45.77,-70.54 c 0,-22.62 1.08,-44.69 3.77,-62.46 h -42.54 l -3.77,32.84 h -1.62 c -14.54,-20.46 -42.53,-38.76 -79.7,-38.76 -52.76,0 -79.68,37.16 -79.68,74.84 0,63.01 55.99,97.47 156.69,96.93 v 5.38 c 0,21 -5.92,60.32 -59.23,59.78 -24.78,0 -50.08,-7 -68.39,-19.38 l -10.77,31.76 c 21.54,13.46 53.31,22.62 86.16,22.62 79.69,0 99.08,-54.38 99.08,-106.08 v -97.47"
         style="fill:#15223c;fill-opacity:1;fill-rule:nonzero;stroke:none"
         id="path70" />
      <path
         d="m 7459.97,1192.32 c 11.84,32.32 26.39,89.93 32.31,129.24 l 52.77,5.38 c -12.92,-45.75 -36.62,-105.53 -51.69,-130.85 l -33.39,-3.77"
         style="fill:#15223c;fill-opacity:1;fill-rule:nonzero;stroke:none"
         id="path72" />
      <path
         d="m 7700.11,1451.87 h 47.92 c 50.08,0 81.85,27.47 81.85,68.93 0,46.85 -33.92,67.32 -83.47,67.32 -22.61,0 -38.23,-1.62 -46.3,-3.77 z m -46.86,165.32 c 23.69,4.31 58.16,7.54 89.93,7.54 50.08,0 82.93,-9.69 105.02,-29.61 17.75,-16.16 28.53,-40.94 28.53,-69.46 0,-47.4 -30.16,-79.16 -67.85,-92.1 v -1.61 c 27.46,-9.69 44.15,-35.54 52.78,-73.24 11.84,-50.6 20.46,-85.61 28,-99.61 h -48.46 c -5.94,10.77 -14.01,41.47 -23.71,86.69 -10.76,50.08 -30.69,68.93 -73.23,70.54 h -44.15 V 1259.1 h -46.86 v 358.09"
         style="fill:#15223c;fill-opacity:1;fill-rule:nonzero;stroke:none"
         id="path74" />
      <path
         d="m 8093.17,1414.72 c 0.52,29.61 -12.4,76.47 -65.7,76.47 -48.46,0 -68.93,-43.63 -72.7,-76.47 z m -138.94,-33.92 c 1.08,-64.09 41.47,-90.46 89.39,-90.46 33.92,0 54.93,5.91 72.16,13.46 l 8.62,-33.93 c -16.7,-7.54 -45.77,-16.69 -87.24,-16.69 -80.24,0 -128.16,53.31 -128.16,131.92 0,78.63 46.31,140.01 122.24,140.01 85.62,0 107.69,-74.32 107.69,-122.24 0,-9.69 -0.53,-16.69 -1.61,-22.07 h -183.09"
         style="fill:#15223c;fill-opacity:1;fill-rule:nonzero;stroke:none"
         id="path76" />
      <path
         d="m 8178.23,1449.19 c 0,27.46 -0.54,49 -2.16,70.53 h 42 l 2.69,-43.07 h 1.08 c 12.92,24.23 43.08,48.46 86.16,48.46 36.07,0 92.08,-21.54 92.08,-110.93 V 1259.1 h -47.38 v 150.23 c 0,42 -15.63,77.01 -60.32,77.01 -30.69,0 -54.93,-22.09 -63.53,-48.47 -2.15,-5.92 -3.23,-14 -3.23,-22.07 v -156.7 h -47.39 v 190.09"
         style="fill:#15223c;fill-opacity:1;fill-rule:nonzero;stroke:none"
         id="path78" />
      <path
         d="m 8493.75,1388.87 c 0,-57.08 32.32,-100.16 78.62,-100.16 45.24,0 79.16,42.54 79.16,101.24 0,44.15 -22.07,99.62 -78.08,99.62 -55.46,0 -79.7,-51.7 -79.7,-100.7 z m 206.25,2.7 c 0,-96.38 -67.31,-138.39 -129.78,-138.39 -70.01,0 -124.93,51.7 -124.93,134.08 0,86.7 57.61,137.85 129.24,137.85 74.85,0 125.47,-54.38 125.47,-133.54"
         style="fill:#15223c;fill-opacity:1;fill-rule:nonzero;stroke:none"
         id="path80" />
    </g>
  </g>
</svg>
